<svg width="215.57205810546876px" height="120.8px" xmlns="http://www.w3.org/2000/svg" viewBox="142.21397094726564 14.600000000000001 215.57205810546876 120.8" style="background: rgba(0, 0, 0, 0);" preserveAspectRatio="xMidYMid"><defs><linearGradient id="editing-gradow-gradient" x1="0" x2="1" y1="0.5" y2="0.5" gradientUnits="objectBoundingBox"><stop offset="0" stop-color="#f0f"></stop><stop offset="1" stop-color="#0ff"></stop></linearGradient><filter id="editing-gradow-filter" x="-100%" y="-100%" width="300%" height="300%"><feFlood flood-color="#fffcd9" result="flood"></feFlood><feComposite operator="in" in2="SourceAlpha" in="flood" result="shadow"></feComposite><feOffset dx="-4" dy="-4" in="SourceGraphic" result="offset-1"></feOffset><feOffset dx="4" dy="4" in="shadow" result="offset-2"></feOffset><feMerge><feMergeNode in="offset-2"></feMergeNode><feMergeNode in="offset-1"></feMergeNode></feMerge></filter></defs><g filter="url(#editing-gradow-filter)"><g transform="translate(180.26066398620605, 99)"><path d="M29.18 1.28L29.18 1.28L29.18 1.28Q20.99 1.28 20.22-10.37L20.22-10.37L9.22-10.37L9.22-10.37Q7.94-7.42 7.04-4.86L7.04-4.86L5.38 0L-3.58 0L16.58-42.24L30.34-42.24L33.02-11.14L33.02-11.14Q33.66-4.42 36.22-2.43L36.22-2.43L36.22-2.43Q34.37 1.28 29.18 1.28ZM14.72-23.17L11.20-15.04L20.03-15.04L19.26-31.49L19.26-33.22L14.72-23.17ZM39.10-3.07L39.10-3.07L47.04-44.80L60.03-46.08L58.05-36.29L58.05-36.29Q57.34-33.28 56.45-31.17L56.45-31.17L56.45-31.17Q57.86-32.96 60.93-33.66L60.93-33.66L60.93-33.66Q61.82-33.92 62.91-33.92L62.91-33.92L62.91-33.92Q68.86-33.92 72.13-30.30L72.13-30.30L72.13-30.30Q75.39-26.69 75.39-19.71L75.39-19.71L75.39-19.71Q75.39-10.62 70.21-4.93L70.21-4.93L70.21-4.93Q64.64 1.28 54.53 1.28L54.53 1.28L54.53 1.28Q47.55 1.28 42.30-1.02L42.30-1.02L42.30-1.02Q40.45-1.86 39.10-3.07ZM55.36-22.40L51.97-3.65L51.97-3.65Q53.31-2.50 54.98-2.50L54.98-2.50L54.98-2.50Q56.64-2.50 57.60-3.14L57.60-3.14L57.60-3.14Q58.56-3.78 59.26-5.06L59.26-5.06L59.26-5.06Q61.18-8.51 62.72-19.07L62.72-19.07L62.72-19.07Q63.17-22.08 63.17-25.09L63.17-25.09L63.17-25.09Q63.17-28.10 62.50-29.06L62.50-29.06L62.50-29.06Q61.82-30.02 60.54-30.02L60.54-30.02L60.54-30.02Q56.64-30.02 55.36-22.40L55.36-22.40ZM111.42-7.10L111.42-7.10L111.42-7.10Q111.42-4.29 114.30-3.46L114.30-3.46L114.30-3.46Q113.60-1.09 110.85 0.19L110.85 0.19L110.85 0.19Q108.54 1.28 106.02 1.28L106.02 1.28L106.02 1.28Q103.49 1.28 102.18 0.61L102.18 0.61L102.18 0.61Q100.86-0.06 100.16-1.15L100.16-1.15L100.16-1.15Q99.01-2.82 99.01-5.95L99.01-5.95L99.01-5.95Q99.01-7.81 100.03-12.93L100.03-12.93L100.93-17.79L100.93-17.79Q102.02-23.36 102.02-25.41L102.02-25.41L102.02-25.41Q102.02-28.99 100.03-28.99L100.03-28.99L100.03-28.99Q97.54-28.99 95.94-25.34L95.94-25.34L95.94-25.34Q95.30-23.94 94.85-21.82L94.85-21.82L90.50 0L77.63 1.28L86.66-44.80L99.52-46.08L99.01-43.52L99.01-43.52Q97.22-33.66 95.68-30.34L95.68-30.34L95.68-30.34Q99.26-33.92 105.86-33.92L105.86-33.92L105.86-33.92Q112.83-33.92 114.11-29.31L114.11-29.31L114.11-29.31Q114.56-27.84 114.56-26.56L114.56-26.56L114.56-26.56Q114.56-25.28 114.46-24.29L114.46-24.29L114.46-24.29Q114.37-23.30 114.05-21.50L114.05-21.50L113.22-16.90L111.74-9.66L111.74-9.66Q111.42-8.19 111.42-7.10ZM134.85-3.52L134.85-3.52L134.85-3.52Q132.86 1.28 126.53 1.28L126.53 1.28L126.53 1.28Q123.26 1.28 121.22-0.96L121.22-0.96L121.22-0.96Q119.49-2.94 119.49-4.93L119.49-4.93L119.49-4.93Q119.49-10.11 121.86-20.22L121.86-20.22L124.22-32.64L137.22-33.92L133.31-13.70L133.31-13.70Q132.22-8.96 132.22-7.30L132.22-7.30L132.22-7.30Q132.22-3.65 134.85-3.52ZM125.38-41.54L125.38-41.54L125.38-41.54Q125.38-44.03 127.46-45.38L127.46-45.38L127.46-45.38Q129.54-46.72 132.54-46.72L132.54-46.72L132.54-46.72Q135.55-46.72 137.38-45.38L137.38-45.38L137.38-45.38Q139.20-44.03 139.20-41.54L139.20-41.54L139.20-41.54Q139.20-39.04 137.18-37.76L137.18-37.76L137.18-37.76Q135.17-36.48 132.16-36.48L132.16-36.48L132.16-36.48Q129.15-36.48 127.26-37.76L127.26-37.76L127.26-37.76Q125.38-39.04 125.38-41.54Z" fill="url(#editing-gradow-gradient)"></path></g></g><style>text {
  font-size: 64px;
  font-family: Arial Black;
  dominant-baseline: central;
  text-anchor: middle;
}</style></svg>